<mxfile host="Electron" modified="2023-11-22T08:38:37.143Z" agent="Mozilla/5.0 (Windows NT 10.0; Win64; x64) AppleWebKit/537.36 (KHTML, like Gecko) draw.io/22.1.2 Chrome/114.0.5735.289 Electron/25.9.4 Safari/537.36" etag="6PC7Xw-FeTHMahOKTehr" version="22.1.2" type="device">
  <diagram name="Pagina-1" id="rXmJ-JUcWHRaf3vMPuQO">
    <mxGraphModel dx="1036" dy="614" grid="1" gridSize="10" guides="1" tooltips="1" connect="1" arrows="1" fold="1" page="1" pageScale="1" pageWidth="827" pageHeight="1169" math="0" shadow="0">
      <root>
        <mxCell id="0" />
        <mxCell id="1" parent="0" />
        <mxCell id="CT3I8BWYqAUpFFT6cGhK-9" style="edgeStyle=orthogonalEdgeStyle;curved=1;rounded=0;orthogonalLoop=1;jettySize=auto;html=1;exitX=1;exitY=0;exitDx=0;exitDy=0;entryX=0;entryY=0;entryDx=0;entryDy=0;" edge="1" parent="1" source="CT3I8BWYqAUpFFT6cGhK-1" target="CT3I8BWYqAUpFFT6cGhK-2">
          <mxGeometry relative="1" as="geometry" />
        </mxCell>
        <mxCell id="CT3I8BWYqAUpFFT6cGhK-10" value="Start" style="edgeLabel;html=1;align=center;verticalAlign=middle;resizable=0;points=[];" vertex="1" connectable="0" parent="CT3I8BWYqAUpFFT6cGhK-9">
          <mxGeometry x="0.1224" y="-6" relative="1" as="geometry">
            <mxPoint as="offset" />
          </mxGeometry>
        </mxCell>
        <mxCell id="CT3I8BWYqAUpFFT6cGhK-1" value="Idle" style="ellipse;whiteSpace=wrap;html=1;aspect=fixed;" vertex="1" parent="1">
          <mxGeometry x="60" y="100" width="80" height="80" as="geometry" />
        </mxCell>
        <mxCell id="CT3I8BWYqAUpFFT6cGhK-11" style="edgeStyle=orthogonalEdgeStyle;curved=1;rounded=0;orthogonalLoop=1;jettySize=auto;html=1;exitX=0.5;exitY=1;exitDx=0;exitDy=0;" edge="1" parent="1" source="CT3I8BWYqAUpFFT6cGhK-2" target="CT3I8BWYqAUpFFT6cGhK-3">
          <mxGeometry relative="1" as="geometry" />
        </mxCell>
        <mxCell id="CT3I8BWYqAUpFFT6cGhK-12" value="Next" style="edgeLabel;html=1;align=center;verticalAlign=middle;resizable=0;points=[];" vertex="1" connectable="0" parent="CT3I8BWYqAUpFFT6cGhK-11">
          <mxGeometry x="0.0106" y="-8" relative="1" as="geometry">
            <mxPoint as="offset" />
          </mxGeometry>
        </mxCell>
        <mxCell id="CT3I8BWYqAUpFFT6cGhK-2" value="Process1" style="ellipse;whiteSpace=wrap;html=1;aspect=fixed;" vertex="1" parent="1">
          <mxGeometry x="414" y="70" width="80" height="80" as="geometry" />
        </mxCell>
        <mxCell id="CT3I8BWYqAUpFFT6cGhK-13" style="edgeStyle=orthogonalEdgeStyle;curved=1;rounded=0;orthogonalLoop=1;jettySize=auto;html=1;exitX=0;exitY=1;exitDx=0;exitDy=0;" edge="1" parent="1" source="CT3I8BWYqAUpFFT6cGhK-3" target="CT3I8BWYqAUpFFT6cGhK-4">
          <mxGeometry relative="1" as="geometry" />
        </mxCell>
        <mxCell id="CT3I8BWYqAUpFFT6cGhK-14" value="Next" style="edgeLabel;html=1;align=center;verticalAlign=middle;resizable=0;points=[];" vertex="1" connectable="0" parent="CT3I8BWYqAUpFFT6cGhK-13">
          <mxGeometry x="0.0045" y="3" relative="1" as="geometry">
            <mxPoint as="offset" />
          </mxGeometry>
        </mxCell>
        <mxCell id="CT3I8BWYqAUpFFT6cGhK-19" style="edgeStyle=orthogonalEdgeStyle;curved=1;rounded=0;orthogonalLoop=1;jettySize=auto;html=1;exitX=0;exitY=0;exitDx=0;exitDy=0;entryX=1;entryY=0.5;entryDx=0;entryDy=0;" edge="1" parent="1" source="CT3I8BWYqAUpFFT6cGhK-3" target="CT3I8BWYqAUpFFT6cGhK-1">
          <mxGeometry relative="1" as="geometry" />
        </mxCell>
        <mxCell id="CT3I8BWYqAUpFFT6cGhK-20" value="Reset" style="edgeLabel;html=1;align=center;verticalAlign=middle;resizable=0;points=[];" vertex="1" connectable="0" parent="CT3I8BWYqAUpFFT6cGhK-19">
          <mxGeometry x="-0.1257" y="-14" relative="1" as="geometry">
            <mxPoint as="offset" />
          </mxGeometry>
        </mxCell>
        <mxCell id="CT3I8BWYqAUpFFT6cGhK-3" value="Process2" style="ellipse;whiteSpace=wrap;html=1;aspect=fixed;" vertex="1" parent="1">
          <mxGeometry x="390" y="340" width="80" height="80" as="geometry" />
        </mxCell>
        <mxCell id="CT3I8BWYqAUpFFT6cGhK-15" style="edgeStyle=orthogonalEdgeStyle;curved=1;rounded=0;orthogonalLoop=1;jettySize=auto;html=1;exitX=0;exitY=0;exitDx=0;exitDy=0;entryX=0.5;entryY=1;entryDx=0;entryDy=0;" edge="1" parent="1" source="CT3I8BWYqAUpFFT6cGhK-4" target="CT3I8BWYqAUpFFT6cGhK-1">
          <mxGeometry relative="1" as="geometry" />
        </mxCell>
        <mxCell id="CT3I8BWYqAUpFFT6cGhK-16" value="Next" style="edgeLabel;html=1;align=center;verticalAlign=middle;resizable=0;points=[];" vertex="1" connectable="0" parent="CT3I8BWYqAUpFFT6cGhK-15">
          <mxGeometry x="0.1872" y="-4" relative="1" as="geometry">
            <mxPoint as="offset" />
          </mxGeometry>
        </mxCell>
        <mxCell id="CT3I8BWYqAUpFFT6cGhK-17" style="edgeStyle=orthogonalEdgeStyle;curved=1;rounded=0;orthogonalLoop=1;jettySize=auto;html=1;exitX=0.5;exitY=0;exitDx=0;exitDy=0;entryX=1;entryY=1;entryDx=0;entryDy=0;" edge="1" parent="1" source="CT3I8BWYqAUpFFT6cGhK-4" target="CT3I8BWYqAUpFFT6cGhK-1">
          <mxGeometry relative="1" as="geometry" />
        </mxCell>
        <mxCell id="CT3I8BWYqAUpFFT6cGhK-18" value="Reset" style="edgeLabel;html=1;align=center;verticalAlign=middle;resizable=0;points=[];" vertex="1" connectable="0" parent="CT3I8BWYqAUpFFT6cGhK-17">
          <mxGeometry x="0.0331" y="-5" relative="1" as="geometry">
            <mxPoint as="offset" />
          </mxGeometry>
        </mxCell>
        <mxCell id="CT3I8BWYqAUpFFT6cGhK-4" value="Process3" style="ellipse;whiteSpace=wrap;html=1;aspect=fixed;" vertex="1" parent="1">
          <mxGeometry x="160" y="380" width="80" height="80" as="geometry" />
        </mxCell>
        <mxCell id="CT3I8BWYqAUpFFT6cGhK-21" style="edgeStyle=orthogonalEdgeStyle;curved=1;rounded=0;orthogonalLoop=1;jettySize=auto;html=1;exitX=0;exitY=1;exitDx=0;exitDy=0;entryX=0.97;entryY=0.267;entryDx=0;entryDy=0;entryPerimeter=0;" edge="1" parent="1" source="CT3I8BWYqAUpFFT6cGhK-2" target="CT3I8BWYqAUpFFT6cGhK-1">
          <mxGeometry relative="1" as="geometry" />
        </mxCell>
        <mxCell id="CT3I8BWYqAUpFFT6cGhK-22" value="Reset&lt;br&gt;" style="edgeLabel;html=1;align=center;verticalAlign=middle;resizable=0;points=[];" vertex="1" connectable="0" parent="CT3I8BWYqAUpFFT6cGhK-21">
          <mxGeometry x="-0.3471" relative="1" as="geometry">
            <mxPoint as="offset" />
          </mxGeometry>
        </mxCell>
      </root>
    </mxGraphModel>
  </diagram>
</mxfile>
